<svg xmlns="http://www.w3.org/2000/svg" xmlns:xlink="http://www.w3.org/1999/xlink" viewBox="0 0 377.2 203.2" xmlns:v="https://vecta.io/nano"><path fill="#ffab4a" d="M99.914 193.3813h-.4766L20.4171 178.702c-1.4298-.286-2.383-1.6204-2.097-3.0502s1.6204-2.383 3.0502-2.097l75.6841 14.012-4.0988-50.8056L49.871 15.9907c-.4766-1.3345.1906-2.8596 1.6204-3.3362 1.3345-.4766 2.8596.1906 3.3362 1.6204l43.18 121.1517c.0953.1906.0953.4766.0953.6672l4.48 54.523c.0953.8579-.286 1.6204-.8579 2.1924-.4766.3813-1.1438.5719-1.8111.5719z"/><path fill="#ff6b4a" d="M99.4374 193.8579c-.3813 0-.8579-.0953-1.2392-.286-1.2392-.6672-1.7158-2.2877-1.0485-3.5268l76.9232-144.3145c.6672-1.2392 2.2877-1.7158 3.5268-1.0485s1.7158 2.2877 1.0485 3.5268l-76.9232 144.3145c-.4766.8579-1.3345 1.3345-2.2877 1.3345z"/><path fill="#ff4a4a" d="M94.9573 139.5255c-.1906 0-.3813 0-.5719-.0953h0-.0953 0 0c-.4766-.0953-.8579-.3813-1.2392-.6672L15.2698 60.9818l-10.1039 55.095c-.286 1.4298-1.6204 2.383-3.0502 2.097s-2.383-1.6204-2.097-3.0502l10.9618-60.0516c.1906-.9532.8579-1.7158 1.8111-2.0017s1.9064 0 2.669.6672l78.0671 78.0671 22.4955-97.0358-64.8176-16.395c-1.2392-.286-2.0017-1.4298-2.0017-2.669s.9532-2.2877 2.1924-2.4783L125.7457.1676c.8579-.1906 1.7158.0953 2.383.7626.5719.6672.8579 1.5251.6672 2.383l-6.3864 27.5475 54.7137 13.8214c.8579.1906 1.6204.8579 1.9064 1.8111.286.8579.0953 1.8111-.5719 2.4783l-81.308 89.6961-.4766.4766h0l-.0953.0953h0c-.6672.1906-1.1438.286-1.6204.286zM121.075 36.0079l-21.2564 91.7932 71.6806-79.1156-50.4243-12.6776zM64.3596 16.2767l52.9026 13.3448 5.4332-23.6394-58.3358 10.2946z"/><path fill="#ff954a" d="M20.5124 179.3692c-.286 0-.6672-.0953-.9532-.1906-.1906-.0953-.4766-.1906-.6672-.3813-.3813-.286-.6672-.6672-.7626-1.0485 0-.0953-.0953-.1906-.0953-.286L.2093 116.2674c-.286-1.0485.0953-2.1924.9532-2.8596l116.5764-82.8331c1.0485-.7626 2.4783-.6672 3.3362.286.9532.8579 1.0485 2.2877.286 3.3362l-92.651 135.1638 65.1036-34.7918c.3813-.1906.7626-.286 1.2392-.286h106.0912l-26.9756-85.6927-49.6617-44.0378c-1.0485-.9532-1.1438-2.5736-.1906-3.7175.9532-1.0485 2.5736-1.1438 3.7175-.1906l50.1383 44.5144c.3813.286.5719.7626.7626 1.1438l28.2147 89.7914c.286.7626.0953 1.6204-.3813 2.2877s-1.2392 1.0485-2.097 1.0485H95.7199l-73.9683 39.5578c-.0953.0953-.1906.0953-.3813.1906s-.286.0953-.4766.0953c-.0953.0953-.286.0953-.3813.0953zM5.7378 116.5533l15.7278 54.1418 87.3131-127.3475L5.7378 116.5533z"/><path fill="#ff4a4a" d="M107.063 32.7671c0 6.1958 4.9566 11.1524 11.1524 11.1524s11.1524-4.9566 11.1524-11.1524-4.9566-11.1524-11.1524-11.1524-11.1524 4.9566-11.1524 11.1524"/><path fill="#ff6b4a" d="M34.2385 85.0977c0 6.1958 4.9566 11.1524 11.1524 11.1524s11.1524-4.9566 11.1524-11.1524h0c0-6.1958-4.9566-11.1524-11.1524-11.1524-6.1005 0-11.1524 4.9566-11.1524 11.1524"/><use xlink:href="#B" fill="#ff954a"/><g fill="#ffab4a"><use xlink:href="#B" x="-75.0168" y="38.6999"/><path d="M165.5895 46.3978c0 6.1958 4.9566 11.1524 11.1524 11.1524s11.1524-4.9566 11.1524-11.1524-4.9566-11.1524-11.1524-11.1524-11.1524 5.052-11.1524 11.1524h0"/></g><path fill="#ff6b4a" d="M88.8569 192.0468c0 6.1958 4.9566 11.1524 11.1524 11.1524s11.1524-4.9566 11.1524-11.1524-4.9566-11.1524-11.1524-11.1524c-6.1005 0-11.1524 5.052-11.1524 11.1524"/><path d="M123.2 141.7h0-9.5c-.8 0-1.3-.2-1.7-.5s-.5-.9-.5-1.7h0V99.7c0-.8.2-1.3.5-1.7s.9-.5 1.7-.5h0 18.8c5.6 0 9.4 1.1 11.4 3.3s3.1 5.1 3.1 8.7h0v7.9c0 3.6-1 6.5-3.1 8.7-2 2.2-5.9 3.3-11.4 3.3h0-7.1v10.2c0 .8-.2 1.3-.5 1.7-.4.2-.9.4-1.7.4zm7.6-32.7h-5.5v9.3h5.5c1.2 0 2-.3 2.3-.9.4-.6.6-1.3.6-2.1h0V112c0-.8-.2-1.5-.6-2.1-.3-.6-1.1-.9-2.3-.9h0zm60.1.1v21c0 1.9-.3 3.6-.8 5.1-.6 1.5-1.5 2.8-3 3.9-1.4 1.1-3.4 1.9-5.8 2.6-2.5.6-5.6.9-9.4.9h0c-3.8 0-7-.3-9.5-.9s-4.5-1.5-5.9-2.6-2.4-2.4-3-3.9-.8-3.2-.8-5.1h0v-21c0-1.9.3-3.6.8-5.1.6-1.5 1.5-2.9 3-4 1.4-1.1 3.4-2 5.9-2.6s5.7-.9 9.5-.9h0c3.8 0 7 .3 9.4.9 2.5.6 4.4 1.5 5.8 2.6s2.4 2.4 3 4c.5 1.5.8 3.3.8 5.1h0zm-24.2 2.3v16.5c0 .8.3 1.5.9 2.1s2 .8 4.2.8h0c2.2 0 3.6-.3 4.2-.8.6-.6.9-1.2.9-2.1h0v-16.5c0-.8-.3-1.4-.9-2s-2-.8-4.2-.8h0c-2.2 0-3.6.3-4.2.8s-.9 1.2-.9 2h0zm52.5 30.3h0-19.4c-.8 0-1.3-.2-1.7-.5s-.5-.9-.5-1.7h0v-7.2c0-.8.2-1.3.5-1.7s.9-.5 1.7-.5h0 16.5c.5 0 .9-.2 1.2-.5s.4-.8.4-1.3h0c0-.7-.1-1.2-.4-1.5s-.7-.5-1.2-.6h0l-9.2-1.3c-2.9-.4-5.2-1.4-6.9-2.8-1.7-1.5-2.6-3.9-2.6-7.4h0v-6.5c0-3.5 1.1-6.2 3.4-8 2.3-1.9 5.4-2.8 9.3-2.8h0 17.2c.8 0 1.3.2 1.7.5.3.3.5.9.5 1.7h0v7.3c0 .8-.2 1.3-.5 1.7-.3.3-.9.5-1.7.5h0-14.3c-.5 0-.9.2-1.2.5s-.4.8-.4 1.3h0c0 .5.1 1 .4 1.4s.7.6 1.2.6h0l9.2 1.2c2.9.4 5.2 1.4 6.9 2.8 1.8 1.5 2.6 3.9 2.6 7.4h0v6.5c0 3.5-1.1 6.2-3.4 8-2.3 2-5.4 2.9-9.3 2.9zm36.3-15.8H239c-.8 0-1.3-.2-1.7-.5s-.5-.9-.5-1.7h0v-8.2c0-.8.2-1.3.5-1.7s.9-.5 1.7-.5h0 16.5c.8 0 1.3.2 1.7.5s.5.9.5 1.7h0v8.2c0 .8-.2 1.3-.5 1.7s-.9.5-1.7.5h0zm38.4 15.8h0-15c-5.1 0-8.9-1-11.4-3.1-2.5-2-3.7-5.2-3.7-9.5h0V110c0-4.3 1.2-7.4 3.7-9.5s6.3-3.1 11.4-3.1h0 15c.8 0 1.3.2 1.7.5.3.3.5.9.5 1.7h0v7.4c0 .8-.2 1.3-.5 1.7-.3.3-.9.5-1.7.5h0-12.4c-1.3 0-2.2.3-2.8.8s-.9 1.3-.9 2.3h0V127c0 1 .3 1.8.9 2.2.6.5 1.6.7 2.8.7h0 12.4c.8 0 1.3.2 1.7.5.3.3.5.9.5 1.7h0v7.3c0 .8-.2 1.3-.5 1.7-.4.4-.9.6-1.7.6zm20.9 0h0-9.5c-.8 0-1.3-.2-1.7-.5-.3-.3-.5-.9-.5-1.7h0V99.7c0-.8.2-1.3.5-1.7.3-.3.9-.5 1.7-.5h0 27.4c.8 0 1.3.2 1.7.5.3.3.5.9.5 1.7h0v7.3c0 .8-.2 1.3-.5 1.7-.3.3-.9.5-1.7.5h0H317v6.4h10.7c.8 0 1.3.2 1.7.5.3.3.5.9.5 1.7h0v7.4c0 .8-.2 1.3-.5 1.7-.3.3-.9.5-1.7.5h0H317v12.1c0 .8-.2 1.3-.5 1.7-.4.3-.9.5-1.7.5zm38.2-8.3v6.1c0 .8-.2 1.3-.5 1.7s-.9.5-1.7.5h0-9.3c-.8 0-1.3-.2-1.7-.5-.3-.3-.5-.9-.5-1.7h0v-6.6c0-1.9.2-3.3.5-4.2s.9-2 1.8-3.3h0l5-6.7-5-6.7c-.9-1.3-1.6-2.4-1.9-3.3s-.5-2.4-.5-4.2h0v-4.7c0-.8.2-1.3.5-1.7.3-.3.9-.5 1.7-.5h0 9.5c.8 0 1.3.2 1.7.5s.5.9.5 1.7h0v4.2c0 .4 0 .8.1 1.3 0 .5.2.9.5 1.3h0l2.7 3.9c.2.3.4.6.6.8s.5.3.8.3h0 .7c.3 0 .6-.1.8-.3s.4-.4.7-.8h0l2.8-3.9c.3-.4.5-.8.5-1.3s.1-.9.1-1.3h0v-4.2c0-.8.2-1.3.5-1.7.3-.3.9-.5 1.7-.5h0 9.3c.8 0 1.3.2 1.7.5.3.3.5.9.5 1.7h0v4.7c0 1.9-.2 3.3-.5 4.2s-.9 2-1.8 3.3h0l-5 6.8 5 6.6c.9 1.3 1.6 2.4 1.9 3.3s.5 2.4.5 4.2h0v6.6c0 .8-.2 1.3-.5 1.7-.3.3-.9.5-1.7.5h0-9.3c-.8 0-1.3-.2-1.7-.5-.3-.3-.5-.9-.5-1.7h0v-6.1c0-.4 0-.8-.1-1.3s-.2-.9-.5-1.3h0l-2.7-3.9c-.2-.4-.5-.6-.7-.8s-.5-.2-.8-.2h0-.9c-.3 0-.6.1-.8.2-.2.2-.4.4-.7.8h0l-2.8 3.9c-.3.4-.5.8-.5 1.3v1.3h0z"/><defs ><path id="B" d="M84.2815 137.4284c0 6.1958 4.9566 11.1524 11.1524 11.1524s11.1524-4.9566 11.1524-11.1524-4.9566-11.1524-11.1524-11.1524-11.1524 5.052-11.1524 11.1524"/></defs></svg>